{"title":"Chinese Zodiac (2012) DVDScr XviD DWR","uid":7991844,"size":1825165391,"categoryP":"video","categoryS":"movies","magnet":"?xt=urn:btih:fe729cbf0090198ee9cd835d9e8288bd273d31f4&amp;dn=Chinese+Zodiac+%282012%29+DVDScr+XviD+DWR&amp;tr=udp%3A%2F%2Ftracker.openbittorrent.com%3A80&amp;tr=udp%3A%2F%2Fopen.demonii.com%3A1337&amp;tr=udp%3A%2F%2Ftracker.coppersurfer.tk%3A6969&amp;tr=udp%3A%2F%2Fexodus.desync.com%3A6969","seeders":3,"leechers":0,"uploader":"tykoon123","files":-1,"time":1357445608,"description":"Poster: &lt;a href=&quot;\nhttp://www.shotpix.com/images/52323291035770135480.jpg&quot; rel=&quot;nofollow&quot; target=&quot;_NEW&quot;&gt;\nhttp://www.shotpix.com/images/52323291035770135480.jpg&lt;/a&gt;\n\nInfo:\n\nFormat : AVI\nFormat/Info : Audio Video Interleave\nFile size : 1.69 GiB\nDuration : 1h 53mn\nOverall bit rate : 2 135 Kbps\n\nVideo\nID : 0\nFormat : MPEG-4 Visual\nFormat profile : Advanced Simple@L5\nFormat settings, BVOP : 2\nFormat settings, QPel : No\nFormat settings, GMC : No warppoints\nFormat settings, Matrix : Default (H.263)\nMuxing mode : Packed bitstream\nCodec ID : XVID\nCodec ID/Hint : XviD\nDuration : 1h 53mn\nBit rate : 1 999 Kbps\nWidth : 688 pixels\nHeight : 288 pixels\nDisplay aspect ratio : 2.40:1\nFrame rate : 23.976 fps\nColor space : YUV\nChroma subsampling : 4:2:0\nBit depth : 8 bits\nScan type : Progressive\nCompression mode : Lossy\nBits/(Pixel*Frame) : 0.421\nStream size : 1.58 GiB (94%)\nWriting library : XviD 64\n\nAudio\nID : 1\nFormat : AC-3\nFormat/Info : Audio Coding 3\nMode extension : CM (complete main)\nFormat settings, Endianness : Big\nCodec ID : 2000\nDuration : 1h 53mn\nBit rate mode : Constant\nBit rate : 128 Kbps\nChannel(s) : 2 channels\nChannel positions : Front: L R\nSampling rate : 48.0 KHz\nBit depth : 16 bits\nCompression mode : Lossy\nStream size : 104 MiB (6%)\nAlignment : Aligned on interleaves\nInterleave, duration : 64 ms (1.53 video frames)\nInterleave, preload duration : 192 ms\n\nSUBTiTLES: HC ENGLiSH &amp; CHiNESE WHEN NEEDED AND THROUGH-OUT\n\nNOTES: thought i would do this one again as a different rip from\nthe source dropped much better Q again now .. no jumpy fighting\nscenes and runs nice and smooth plus it was in a mkv container\nthis time and no RVMB\n\n\nScreens: &lt;a href=&quot;\nhttp://www.shotpix.com/images/92248496807327912183.png&quot; rel=&quot;nofollow&quot; target=&quot;_NEW&quot;&gt;\nhttp://www.shotpix.com/images/92248496807327912183.png&lt;/a&gt; &lt;a href=&quot;\nhttp://www.shotpix.com/images/71318570449579926952.png&quot; rel=&quot;nofollow&quot; target=&quot;_NEW&quot;&gt;\nhttp://www.shotpix.com/images/71318570449579926952.png&lt;/a&gt; &lt;a href=&quot;\nhttp://www.shotpix.com/images/28844972256056555000.png&quot; rel=&quot;nofollow&quot; target=&quot;_NEW&quot;&gt;\nhttp://www.shotpix.com/images/28844972256056555000.png&lt;/a&gt; &lt;a href=&quot;\nhttp://www.shotpix.com/images/02256625928747506770.png&quot; rel=&quot;nofollow&quot; target=&quot;_NEW&quot;&gt;\nhttp://www.shotpix.com/images/02256625928747506770.png&lt;/a&gt; &lt;a href=&quot;\nhttp://www.shotpix.com/images/73929808955194144826.png&quot; rel=&quot;nofollow&quot; target=&quot;_NEW&quot;&gt;\nhttp://www.shotpix.com/images/73929808955194144826.png&lt;/a&gt; &lt;a href=&quot;\nhttp://www.shotpix.com/images/16089490112035530384.png&quot; rel=&quot;nofollow&quot; target=&quot;_NEW&quot;&gt;\nhttp://www.shotpix.com/images/16089490112035530384.png&lt;/a&gt;\n\n\n\n\n\n","torrent":{"xt":"urn:btih:fe729cbf0090198ee9cd835d9e8288bd273d31f4","amp;dn":"Chinese+Zodiac+%282012%29+DVDScr+XviD+DWR","amp;tr":["udp%3A%2F%2Ftracker.openbittorrent.com%3A80","udp%3A%2F%2Fopen.demonii.com%3A1337","udp%3A%2F%2Ftracker.coppersurfer.tk%3A6969","udp%3A%2F%2Fexodus.desync.com%3A6969"],"infoHash":"fe729cbf0090198ee9cd835d9e8288bd273d31f4","infoHashBuffer":{"type":"Buffer","data":[254,114,156,191,0,144,25,142,233,205,131,93,158,130,136,189,39,61,49,244]},"announce":[],"urlList":[]}}